<?xml version="1.0" encoding="UTF-8" standalone="no"?>
<!DOCTYPE svg PUBLIC "-//W3C//DTD SVG 1.1//EN"
 "http://www.w3.org/Graphics/SVG/1.1/DTD/svg11.dtd">
<!-- Generated by graphviz version 2.49.0 (20210829.0051)
 -->
<!-- Title: snakemake_dag Pages: 1 -->
<svg width="248pt" height="764pt"
 viewBox="0.00 0.00 248.00 764.00" xmlns="http://www.w3.org/2000/svg" xmlns:xlink="http://www.w3.org/1999/xlink">
<g id="graph0" class="graph" transform="scale(1 1) rotate(0) translate(4 760)">
<title>snakemake_dag</title>
<polygon fill="white" stroke="transparent" points="-4,4 -4,-760 244,-760 244,4 -4,4"/>
<!-- 0 -->
<g id="node1" class="node">
<title>0</title>
<path fill="none" stroke="#56d892" stroke-width="2" d="M99,-36C99,-36 69,-36 69,-36 63,-36 57,-30 57,-24 57,-24 57,-12 57,-12 57,-6 63,0 69,0 69,0 99,0 99,0 105,0 111,-6 111,-12 111,-12 111,-24 111,-24 111,-30 105,-36 99,-36"/>
<text text-anchor="middle" x="84" y="-15.5" font-family="sans" font-size="10.00">all</text>
</g>
<!-- 1 -->
<g id="node2" class="node">
<title>1</title>
<path fill="none" stroke="#68d856" stroke-width="2" d="M110,-108C110,-108 58,-108 58,-108 52,-108 46,-102 46,-96 46,-96 46,-84 46,-84 46,-78 52,-72 58,-72 58,-72 110,-72 110,-72 116,-72 122,-78 122,-84 122,-84 122,-96 122,-96 122,-102 116,-108 110,-108"/>
<text text-anchor="middle" x="84" y="-87.5" font-family="sans" font-size="10.00">aggr_counts</text>
</g>
<!-- 1&#45;&gt;0 -->
<g id="edge1" class="edge">
<title>1&#45;&gt;0</title>
<path fill="none" stroke="grey" stroke-width="2" d="M84,-71.7C84,-63.98 84,-54.71 84,-46.11"/>
<polygon fill="grey" stroke="grey" stroke-width="2" points="87.5,-46.1 84,-36.1 80.5,-46.1 87.5,-46.1"/>
</g>
<!-- 2 -->
<g id="node3" class="node">
<title>2</title>
<path fill="none" stroke="#8fd856" stroke-width="2" d="M108.5,-180C108.5,-180 59.5,-180 59.5,-180 53.5,-180 47.5,-174 47.5,-168 47.5,-168 47.5,-156 47.5,-156 47.5,-150 53.5,-144 59.5,-144 59.5,-144 108.5,-144 108.5,-144 114.5,-144 120.5,-150 120.5,-156 120.5,-156 120.5,-168 120.5,-168 120.5,-174 114.5,-180 108.5,-180"/>
<text text-anchor="middle" x="84" y="-159.5" font-family="sans" font-size="10.00">append_sfx</text>
</g>
<!-- 2&#45;&gt;1 -->
<g id="edge2" class="edge">
<title>2&#45;&gt;1</title>
<path fill="none" stroke="grey" stroke-width="2" d="M84,-143.7C84,-135.98 84,-126.71 84,-118.11"/>
<polygon fill="grey" stroke="grey" stroke-width="2" points="87.5,-118.1 84,-108.1 80.5,-118.1 87.5,-118.1"/>
</g>
<!-- 3 -->
<g id="node4" class="node">
<title>3</title>
<path fill="none" stroke="#d85656" stroke-width="2" d="M120.5,-252C120.5,-252 47.5,-252 47.5,-252 41.5,-252 35.5,-246 35.5,-240 35.5,-240 35.5,-228 35.5,-228 35.5,-222 41.5,-216 47.5,-216 47.5,-216 120.5,-216 120.5,-216 126.5,-216 132.5,-222 132.5,-228 132.5,-228 132.5,-240 132.5,-240 132.5,-246 126.5,-252 120.5,-252"/>
<text text-anchor="middle" x="84" y="-231.5" font-family="sans" font-size="10.00">umi_tools_count</text>
</g>
<!-- 3&#45;&gt;2 -->
<g id="edge3" class="edge">
<title>3&#45;&gt;2</title>
<path fill="none" stroke="grey" stroke-width="2" d="M84,-215.7C84,-207.98 84,-198.71 84,-190.11"/>
<polygon fill="grey" stroke="grey" stroke-width="2" points="87.5,-190.1 84,-180.1 80.5,-190.1 87.5,-190.1"/>
</g>
<!-- 4 -->
<g id="node5" class="node">
<title>4</title>
<path fill="none" stroke="#56d86b" stroke-width="2" d="M119.5,-324C119.5,-324 48.5,-324 48.5,-324 42.5,-324 36.5,-318 36.5,-312 36.5,-312 36.5,-300 36.5,-300 36.5,-294 42.5,-288 48.5,-288 48.5,-288 119.5,-288 119.5,-288 125.5,-288 131.5,-294 131.5,-300 131.5,-300 131.5,-312 131.5,-312 131.5,-318 125.5,-324 119.5,-324"/>
<text text-anchor="middle" x="84" y="-303.5" font-family="sans" font-size="10.00">sambamba_sort</text>
</g>
<!-- 4&#45;&gt;3 -->
<g id="edge4" class="edge">
<title>4&#45;&gt;3</title>
<path fill="none" stroke="grey" stroke-width="2" d="M84,-287.7C84,-279.98 84,-270.71 84,-262.11"/>
<polygon fill="grey" stroke="grey" stroke-width="2" points="87.5,-262.1 84,-252.1 80.5,-262.1 87.5,-262.1"/>
</g>
<!-- 5 -->
<g id="node6" class="node">
<title>5</title>
<path fill="none" stroke="#b6d856" stroke-width="2" d="M111.5,-396C111.5,-396 56.5,-396 56.5,-396 50.5,-396 44.5,-390 44.5,-384 44.5,-384 44.5,-372 44.5,-372 44.5,-366 50.5,-360 56.5,-360 56.5,-360 111.5,-360 111.5,-360 117.5,-360 123.5,-366 123.5,-372 123.5,-372 123.5,-384 123.5,-384 123.5,-390 117.5,-396 111.5,-396"/>
<text text-anchor="middle" x="84" y="-375.5" font-family="sans" font-size="10.00">featurecount</text>
</g>
<!-- 5&#45;&gt;4 -->
<g id="edge5" class="edge">
<title>5&#45;&gt;4</title>
<path fill="none" stroke="grey" stroke-width="2" d="M84,-359.7C84,-351.98 84,-342.71 84,-334.11"/>
<polygon fill="grey" stroke="grey" stroke-width="2" points="87.5,-334.1 84,-324.1 80.5,-334.1 87.5,-334.1"/>
</g>
<!-- 6 -->
<g id="node7" class="node">
<title>6</title>
<path fill="none" stroke="#56d8b9" stroke-width="2" d="M144,-468C144,-468 114,-468 114,-468 108,-468 102,-462 102,-456 102,-456 102,-444 102,-444 102,-438 108,-432 114,-432 114,-432 144,-432 144,-432 150,-432 156,-438 156,-444 156,-444 156,-456 156,-456 156,-462 150,-468 144,-468"/>
<text text-anchor="middle" x="129" y="-447.5" font-family="sans" font-size="10.00">STAR</text>
</g>
<!-- 6&#45;&gt;5 -->
<g id="edge7" class="edge">
<title>6&#45;&gt;5</title>
<path fill="none" stroke="grey" stroke-width="2" d="M117.88,-431.7C112.64,-423.56 106.3,-413.69 100.52,-404.7"/>
<polygon fill="grey" stroke="grey" stroke-width="2" points="103.35,-402.62 95,-396.1 97.46,-406.41 103.35,-402.62"/>
</g>
<!-- 7 -->
<g id="node8" class="node">
<title>7</title>
<path fill="none" stroke="#d8cb56" stroke-width="2" d="M224,-612C224,-612 144,-612 144,-612 138,-612 132,-606 132,-600 132,-600 132,-588 132,-588 132,-582 138,-576 144,-576 144,-576 224,-576 224,-576 230,-576 236,-582 236,-588 236,-588 236,-600 236,-600 236,-606 230,-612 224,-612"/>
<text text-anchor="middle" x="184" y="-591.5" font-family="sans" font-size="10.00">umi_tools_extract</text>
</g>
<!-- 7&#45;&gt;6 -->
<g id="edge8" class="edge">
<title>7&#45;&gt;6</title>
<path fill="none" stroke="grey" stroke-width="2" d="M185.55,-575.83C186.53,-557.31 186.08,-527.36 176,-504 171.45,-493.45 163.96,-483.55 156.28,-475.22"/>
<polygon fill="grey" stroke="grey" stroke-width="2" points="158.76,-472.74 149.26,-468.04 153.75,-477.64 158.76,-472.74"/>
</g>
<!-- 11 -->
<g id="node12" class="node">
<title>11</title>
<path fill="none" stroke="#567bd8" stroke-width="2" d="M155,-540C155,-540 111,-540 111,-540 105,-540 99,-534 99,-528 99,-528 99,-516 99,-516 99,-510 105,-504 111,-504 111,-504 155,-504 155,-504 161,-504 167,-510 167,-516 167,-516 167,-528 167,-528 167,-534 161,-540 155,-540"/>
<text text-anchor="middle" x="133" y="-519.5" font-family="sans" font-size="10.00">STAR_load</text>
</g>
<!-- 7&#45;&gt;11 -->
<g id="edge13" class="edge">
<title>7&#45;&gt;11</title>
<path fill="none" stroke="grey" stroke-width="2" d="M171.39,-575.7C165.4,-567.47 158.12,-557.48 151.52,-548.42"/>
<polygon fill="grey" stroke="grey" stroke-width="2" points="154.18,-546.13 145.46,-540.1 148.52,-550.25 154.18,-546.13"/>
</g>
<!-- 8 -->
<g id="node9" class="node">
<title>8</title>
<path fill="none" stroke="#56d0d8" stroke-width="2" d="M216.5,-684C216.5,-684 151.5,-684 151.5,-684 145.5,-684 139.5,-678 139.5,-672 139.5,-672 139.5,-660 139.5,-660 139.5,-654 145.5,-648 151.5,-648 151.5,-648 216.5,-648 216.5,-648 222.5,-648 228.5,-654 228.5,-660 228.5,-660 228.5,-672 228.5,-672 228.5,-678 222.5,-684 216.5,-684"/>
<text text-anchor="middle" x="184" y="-663.5" font-family="sans" font-size="10.00">wash_whitelist</text>
</g>
<!-- 8&#45;&gt;7 -->
<g id="edge11" class="edge">
<title>8&#45;&gt;7</title>
<path fill="none" stroke="grey" stroke-width="2" d="M184,-647.7C184,-639.98 184,-630.71 184,-622.11"/>
<polygon fill="grey" stroke="grey" stroke-width="2" points="187.5,-622.1 184,-612.1 180.5,-622.1 187.5,-622.1"/>
</g>
<!-- 9 -->
<g id="node10" class="node">
<title>9</title>
<path fill="none" stroke="#d8a456" stroke-width="2" d="M228,-756C228,-756 140,-756 140,-756 134,-756 128,-750 128,-744 128,-744 128,-732 128,-732 128,-726 134,-720 140,-720 140,-720 228,-720 228,-720 234,-720 240,-726 240,-732 240,-732 240,-744 240,-744 240,-750 234,-756 228,-756"/>
<text text-anchor="middle" x="184" y="-735.5" font-family="sans" font-size="10.00">umi_tools_whitelist</text>
</g>
<!-- 9&#45;&gt;8 -->
<g id="edge12" class="edge">
<title>9&#45;&gt;8</title>
<path fill="none" stroke="grey" stroke-width="2" d="M184,-719.7C184,-711.98 184,-702.71 184,-694.11"/>
<polygon fill="grey" stroke="grey" stroke-width="2" points="187.5,-694.1 184,-684.1 180.5,-694.1 187.5,-694.1"/>
</g>
<!-- 10 -->
<g id="node11" class="node">
<title>10</title>
<path fill="none" stroke="#d87d56" stroke-width="2" d="M91.5,-612C91.5,-612 50.5,-612 50.5,-612 44.5,-612 38.5,-606 38.5,-600 38.5,-600 38.5,-588 38.5,-588 38.5,-582 44.5,-576 50.5,-576 50.5,-576 91.5,-576 91.5,-576 97.5,-576 103.5,-582 103.5,-588 103.5,-588 103.5,-600 103.5,-600 103.5,-606 97.5,-612 91.5,-612"/>
<text text-anchor="middle" x="71" y="-591.5" font-family="sans" font-size="10.00">STAR_gen</text>
</g>
<!-- 10&#45;&gt;6 -->
<g id="edge10" class="edge">
<title>10&#45;&gt;6</title>
<path fill="none" stroke="grey" stroke-width="2" d="M72.48,-575.94C74.57,-557.51 79.38,-527.63 90,-504 94.36,-494.31 100.69,-484.66 107,-476.31"/>
<polygon fill="grey" stroke="grey" stroke-width="2" points="109.77,-478.45 113.22,-468.44 104.27,-474.11 109.77,-478.45"/>
</g>
<!-- 10&#45;&gt;11 -->
<g id="edge14" class="edge">
<title>10&#45;&gt;11</title>
<path fill="none" stroke="grey" stroke-width="2" d="M86.33,-575.7C93.76,-567.3 102.82,-557.07 110.98,-547.86"/>
<polygon fill="grey" stroke="grey" stroke-width="2" points="113.84,-549.91 117.85,-540.1 108.6,-545.27 113.84,-549.91"/>
</g>
<!-- 12 -->
<g id="node13" class="node">
<title>12</title>
<path fill="none" stroke="#56a9d8" stroke-width="2" d="M68,-468C68,-468 12,-468 12,-468 6,-468 0,-462 0,-456 0,-456 0,-444 0,-444 0,-438 6,-432 12,-432 12,-432 68,-432 68,-432 74,-432 80,-438 80,-444 80,-444 80,-456 80,-456 80,-462 74,-468 68,-468"/>
<text text-anchor="middle" x="40" y="-447.5" font-family="sans" font-size="10.00">STAR_unload</text>
</g>
<!-- 10&#45;&gt;12 -->
<g id="edge15" class="edge">
<title>10&#45;&gt;12</title>
<path fill="none" stroke="grey" stroke-width="2" d="M66.16,-575.89C63.31,-565.54 59.74,-552.06 57,-540 52.32,-519.42 47.88,-495.97 44.71,-478.31"/>
<polygon fill="grey" stroke="grey" stroke-width="2" points="48.1,-477.37 42.91,-468.14 41.2,-478.59 48.1,-477.37"/>
</g>
<!-- 11&#45;&gt;6 -->
<g id="edge9" class="edge">
<title>11&#45;&gt;6</title>
<path fill="none" stroke="grey" stroke-width="2" d="M132.01,-503.7C131.57,-495.98 131.04,-486.71 130.55,-478.11"/>
<polygon fill="grey" stroke="grey" stroke-width="2" points="134.04,-477.89 129.98,-468.1 127.05,-478.29 134.04,-477.89"/>
</g>
<!-- 12&#45;&gt;5 -->
<g id="edge6" class="edge">
<title>12&#45;&gt;5</title>
<path fill="none" stroke="grey" stroke-width="2" d="M50.88,-431.7C55.99,-423.56 62.2,-413.69 67.84,-404.7"/>
<polygon fill="grey" stroke="grey" stroke-width="2" points="70.89,-406.43 73.25,-396.1 64.96,-402.71 70.89,-406.43"/>
</g>
</g>
</svg>
