<?xml version="1.0" encoding="UTF-8" standalone="no"?>
<!DOCTYPE svg PUBLIC "-//W3C//DTD SVG 1.1//EN"
 "http://www.w3.org/Graphics/SVG/1.1/DTD/svg11.dtd">
<!-- Generated by graphviz version 2.49.0 (20210829.0051)
 -->
<!-- Title: snakemake_dag Pages: 1 -->
<svg width="249pt" height="836pt"
 viewBox="0.00 0.00 249.00 836.00" xmlns="http://www.w3.org/2000/svg" xmlns:xlink="http://www.w3.org/1999/xlink">
<g id="graph0" class="graph" transform="scale(1 1) rotate(0) translate(4 832)">
<title>snakemake_dag</title>
<polygon fill="white" stroke="transparent" points="-4,4 -4,-832 245,-832 245,4 -4,4"/>
<!-- 0 -->
<g id="node1" class="node">
<title>0</title>
<path fill="none" stroke="#56d892" stroke-width="2" d="M182,-36C182,-36 152,-36 152,-36 146,-36 140,-30 140,-24 140,-24 140,-12 140,-12 140,-6 146,0 152,0 152,0 182,0 182,0 188,0 194,-6 194,-12 194,-12 194,-24 194,-24 194,-30 188,-36 182,-36"/>
<text text-anchor="middle" x="167" y="-15.5" font-family="sans" font-size="10.00">all</text>
</g>
<!-- 1 -->
<g id="node2" class="node">
<title>1</title>
<path fill="none" stroke="#8fd856" stroke-width="2" d="M132.5,-180C132.5,-180 83.5,-180 83.5,-180 77.5,-180 71.5,-174 71.5,-168 71.5,-168 71.5,-156 71.5,-156 71.5,-150 77.5,-144 83.5,-144 83.5,-144 132.5,-144 132.5,-144 138.5,-144 144.5,-150 144.5,-156 144.5,-156 144.5,-168 144.5,-168 144.5,-174 138.5,-180 132.5,-180"/>
<text text-anchor="middle" x="108" y="-159.5" font-family="sans" font-size="10.00">append_sfx</text>
</g>
<!-- 1&#45;&gt;0 -->
<g id="edge2" class="edge">
<title>1&#45;&gt;0</title>
<path fill="none" stroke="grey" stroke-width="2" d="M115.12,-143.87C125.26,-119.46 143.97,-74.43 155.93,-45.64"/>
<polygon fill="grey" stroke="grey" stroke-width="2" points="159.25,-46.77 159.86,-36.19 152.79,-44.08 159.25,-46.77"/>
</g>
<!-- 12 -->
<g id="node13" class="node">
<title>12</title>
<path fill="none" stroke="#56d0d8" stroke-width="2" d="M108,-108C108,-108 56,-108 56,-108 50,-108 44,-102 44,-96 44,-96 44,-84 44,-84 44,-78 50,-72 56,-72 56,-72 108,-72 108,-72 114,-72 120,-78 120,-84 120,-84 120,-96 120,-96 120,-102 114,-108 108,-108"/>
<text text-anchor="middle" x="82" y="-87.5" font-family="sans" font-size="10.00">aggr_counts</text>
</g>
<!-- 1&#45;&gt;12 -->
<g id="edge19" class="edge">
<title>1&#45;&gt;12</title>
<path fill="none" stroke="grey" stroke-width="2" d="M101.57,-143.7C98.64,-135.81 95.11,-126.3 91.86,-117.55"/>
<polygon fill="grey" stroke="grey" stroke-width="2" points="95.12,-116.26 88.35,-108.1 88.55,-118.7 95.12,-116.26"/>
</g>
<!-- 2 -->
<g id="node3" class="node">
<title>2</title>
<path fill="none" stroke="#567bd8" stroke-width="2" d="M144.5,-252C144.5,-252 71.5,-252 71.5,-252 65.5,-252 59.5,-246 59.5,-240 59.5,-240 59.5,-228 59.5,-228 59.5,-222 65.5,-216 71.5,-216 71.5,-216 144.5,-216 144.5,-216 150.5,-216 156.5,-222 156.5,-228 156.5,-228 156.5,-240 156.5,-240 156.5,-246 150.5,-252 144.5,-252"/>
<text text-anchor="middle" x="108" y="-231.5" font-family="sans" font-size="10.00">umi_tools_count</text>
</g>
<!-- 2&#45;&gt;1 -->
<g id="edge5" class="edge">
<title>2&#45;&gt;1</title>
<path fill="none" stroke="grey" stroke-width="2" d="M108,-215.7C108,-207.98 108,-198.71 108,-190.11"/>
<polygon fill="grey" stroke="grey" stroke-width="2" points="111.5,-190.1 108,-180.1 104.5,-190.1 111.5,-190.1"/>
</g>
<!-- 3 -->
<g id="node4" class="node">
<title>3</title>
<path fill="none" stroke="#56d8b9" stroke-width="2" d="M143.5,-324C143.5,-324 72.5,-324 72.5,-324 66.5,-324 60.5,-318 60.5,-312 60.5,-312 60.5,-300 60.5,-300 60.5,-294 66.5,-288 72.5,-288 72.5,-288 143.5,-288 143.5,-288 149.5,-288 155.5,-294 155.5,-300 155.5,-300 155.5,-312 155.5,-312 155.5,-318 149.5,-324 143.5,-324"/>
<text text-anchor="middle" x="108" y="-303.5" font-family="sans" font-size="10.00">sambamba_sort</text>
</g>
<!-- 3&#45;&gt;2 -->
<g id="edge6" class="edge">
<title>3&#45;&gt;2</title>
<path fill="none" stroke="grey" stroke-width="2" d="M108,-287.7C108,-279.98 108,-270.71 108,-262.11"/>
<polygon fill="grey" stroke="grey" stroke-width="2" points="111.5,-262.1 108,-252.1 104.5,-262.1 111.5,-262.1"/>
</g>
<!-- 4 -->
<g id="node5" class="node">
<title>4</title>
<path fill="none" stroke="#68d856" stroke-width="2" d="M139,-396C139,-396 77,-396 77,-396 71,-396 65,-390 65,-384 65,-384 65,-372 65,-372 65,-366 71,-360 77,-360 77,-360 139,-360 139,-360 145,-360 151,-366 151,-372 151,-372 151,-384 151,-384 151,-390 145,-396 139,-396"/>
<text text-anchor="middle" x="108" y="-375.5" font-family="sans" font-size="10.00">featureCounts</text>
</g>
<!-- 4&#45;&gt;0 -->
<g id="edge3" class="edge">
<title>4&#45;&gt;0</title>
<path fill="none" stroke="grey" stroke-width="2" d="M131.77,-359.77C143.1,-350.39 155.91,-337.88 164,-324 184.51,-288.8 186,-275.75 186,-235 186,-235 186,-235 186,-161 186,-120.86 178.45,-74.9 172.87,-46.4"/>
<polygon fill="grey" stroke="grey" stroke-width="2" points="176.26,-45.5 170.84,-36.39 169.39,-46.88 176.26,-45.5"/>
</g>
<!-- 4&#45;&gt;3 -->
<g id="edge7" class="edge">
<title>4&#45;&gt;3</title>
<path fill="none" stroke="grey" stroke-width="2" d="M108,-359.7C108,-351.98 108,-342.71 108,-334.11"/>
<polygon fill="grey" stroke="grey" stroke-width="2" points="111.5,-334.1 108,-324.1 104.5,-334.1 111.5,-334.1"/>
</g>
<!-- 5 -->
<g id="node6" class="node">
<title>5</title>
<path fill="none" stroke="#d8a456" stroke-width="2" d="M120,-540C120,-540 90,-540 90,-540 84,-540 78,-534 78,-528 78,-528 78,-516 78,-516 78,-510 84,-504 90,-504 90,-504 120,-504 120,-504 126,-504 132,-510 132,-516 132,-516 132,-528 132,-528 132,-534 126,-540 120,-540"/>
<text text-anchor="middle" x="105" y="-519.5" font-family="sans" font-size="10.00">STAR</text>
</g>
<!-- 5&#45;&gt;4 -->
<g id="edge8" class="edge">
<title>5&#45;&gt;4</title>
<path fill="none" stroke="grey" stroke-width="2" d="M105.36,-503.87C105.87,-479.67 106.81,-435.21 107.42,-406.39"/>
<polygon fill="grey" stroke="grey" stroke-width="2" points="110.92,-406.26 107.64,-396.19 103.93,-406.11 110.92,-406.26"/>
</g>
<!-- 11 -->
<g id="node12" class="node">
<title>11</title>
<path fill="none" stroke="#b6d856" stroke-width="2" d="M68,-468C68,-468 12,-468 12,-468 6,-468 0,-462 0,-456 0,-456 0,-444 0,-444 0,-438 6,-432 12,-432 12,-432 68,-432 68,-432 74,-432 80,-438 80,-444 80,-444 80,-456 80,-456 80,-462 74,-468 68,-468"/>
<text text-anchor="middle" x="40" y="-447.5" font-family="sans" font-size="10.00">STAR_unload</text>
</g>
<!-- 5&#45;&gt;11 -->
<g id="edge17" class="edge">
<title>5&#45;&gt;11</title>
<path fill="none" stroke="grey" stroke-width="2" d="M88.93,-503.7C81.06,-495.22 71.44,-484.86 62.83,-475.58"/>
<polygon fill="grey" stroke="grey" stroke-width="2" points="65.25,-473.05 55.88,-468.1 60.12,-477.81 65.25,-473.05"/>
</g>
<!-- 6 -->
<g id="node7" class="node">
<title>6</title>
<path fill="none" stroke="#d8cb56" stroke-width="2" d="M185,-684C185,-684 105,-684 105,-684 99,-684 93,-678 93,-672 93,-672 93,-660 93,-660 93,-654 99,-648 105,-648 105,-648 185,-648 185,-648 191,-648 197,-654 197,-660 197,-660 197,-672 197,-672 197,-678 191,-684 185,-684"/>
<text text-anchor="middle" x="145" y="-663.5" font-family="sans" font-size="10.00">umi_tools_extract</text>
</g>
<!-- 6&#45;&gt;5 -->
<g id="edge12" class="edge">
<title>6&#45;&gt;5</title>
<path fill="none" stroke="grey" stroke-width="2" d="M149.23,-647.7C152.9,-629.34 156.42,-599.75 148,-576 144.34,-565.68 137.71,-555.9 130.74,-547.61"/>
<polygon fill="grey" stroke="grey" stroke-width="2" points="133.33,-545.26 124.04,-540.16 128.13,-549.94 133.33,-545.26"/>
</g>
<!-- 10 -->
<g id="node11" class="node">
<title>10</title>
<path fill="none" stroke="#d87d56" stroke-width="2" d="M127,-612C127,-612 83,-612 83,-612 77,-612 71,-606 71,-600 71,-600 71,-588 71,-588 71,-582 77,-576 83,-576 83,-576 127,-576 127,-576 133,-576 139,-582 139,-588 139,-588 139,-600 139,-600 139,-606 133,-612 127,-612"/>
<text text-anchor="middle" x="105" y="-591.5" font-family="sans" font-size="10.00">STAR_load</text>
</g>
<!-- 6&#45;&gt;10 -->
<g id="edge16" class="edge">
<title>6&#45;&gt;10</title>
<path fill="none" stroke="grey" stroke-width="2" d="M135.11,-647.7C130.51,-639.64 124.94,-629.89 119.85,-620.98"/>
<polygon fill="grey" stroke="grey" stroke-width="2" points="122.77,-619.05 114.77,-612.1 116.7,-622.52 122.77,-619.05"/>
</g>
<!-- 7 -->
<g id="node8" class="node">
<title>7</title>
<path fill="none" stroke="#56d86b" stroke-width="2" d="M181.5,-756C181.5,-756 116.5,-756 116.5,-756 110.5,-756 104.5,-750 104.5,-744 104.5,-744 104.5,-732 104.5,-732 104.5,-726 110.5,-720 116.5,-720 116.5,-720 181.5,-720 181.5,-720 187.5,-720 193.5,-726 193.5,-732 193.5,-732 193.5,-744 193.5,-744 193.5,-750 187.5,-756 181.5,-756"/>
<text text-anchor="middle" x="149" y="-735.5" font-family="sans" font-size="10.00">wash_whitelist</text>
</g>
<!-- 7&#45;&gt;6 -->
<g id="edge13" class="edge">
<title>7&#45;&gt;6</title>
<path fill="none" stroke="grey" stroke-width="2" d="M148.01,-719.7C147.57,-711.98 147.04,-702.71 146.55,-694.11"/>
<polygon fill="grey" stroke="grey" stroke-width="2" points="150.04,-693.89 145.98,-684.1 143.05,-694.29 150.04,-693.89"/>
</g>
<!-- 8 -->
<g id="node9" class="node">
<title>8</title>
<path fill="none" stroke="#d85656" stroke-width="2" d="M229,-828C229,-828 141,-828 141,-828 135,-828 129,-822 129,-816 129,-816 129,-804 129,-804 129,-798 135,-792 141,-792 141,-792 229,-792 229,-792 235,-792 241,-798 241,-804 241,-804 241,-816 241,-816 241,-822 235,-828 229,-828"/>
<text text-anchor="middle" x="185" y="-807.5" font-family="sans" font-size="10.00">umi_tools_whitelist</text>
</g>
<!-- 8&#45;&gt;0 -->
<g id="edge1" class="edge">
<title>8&#45;&gt;0</title>
<path fill="none" stroke="grey" stroke-width="2" d="M193.09,-791.95C204.78,-765.72 225,-713.61 225,-667 225,-667 225,-667 225,-161 225,-117.7 201.6,-72.11 184.52,-44.61"/>
<polygon fill="grey" stroke="grey" stroke-width="2" points="187.36,-42.55 179.02,-36.01 181.46,-46.32 187.36,-42.55"/>
</g>
<!-- 8&#45;&gt;7 -->
<g id="edge14" class="edge">
<title>8&#45;&gt;7</title>
<path fill="none" stroke="grey" stroke-width="2" d="M176.1,-791.7C172,-783.73 167.05,-774.1 162.51,-765.26"/>
<polygon fill="grey" stroke="grey" stroke-width="2" points="165.48,-763.4 157.8,-756.1 159.26,-766.6 165.48,-763.4"/>
</g>
<!-- 9 -->
<g id="node10" class="node">
<title>9</title>
<path fill="none" stroke="#56a9d8" stroke-width="2" d="M62.5,-684C62.5,-684 21.5,-684 21.5,-684 15.5,-684 9.5,-678 9.5,-672 9.5,-672 9.5,-660 9.5,-660 9.5,-654 15.5,-648 21.5,-648 21.5,-648 62.5,-648 62.5,-648 68.5,-648 74.5,-654 74.5,-660 74.5,-660 74.5,-672 74.5,-672 74.5,-678 68.5,-684 62.5,-684"/>
<text text-anchor="middle" x="42" y="-663.5" font-family="sans" font-size="10.00">STAR_gen</text>
</g>
<!-- 9&#45;&gt;5 -->
<g id="edge10" class="edge">
<title>9&#45;&gt;5</title>
<path fill="none" stroke="grey" stroke-width="2" d="M43.5,-647.83C45.65,-629.32 50.67,-599.37 62,-576 66.86,-565.98 73.94,-556.18 80.96,-547.78"/>
<polygon fill="grey" stroke="grey" stroke-width="2" points="83.65,-550.03 87.6,-540.2 78.38,-545.41 83.65,-550.03"/>
</g>
<!-- 9&#45;&gt;10 -->
<g id="edge15" class="edge">
<title>9&#45;&gt;10</title>
<path fill="none" stroke="grey" stroke-width="2" d="M57.57,-647.7C65.2,-639.22 74.52,-628.86 82.88,-619.58"/>
<polygon fill="grey" stroke="grey" stroke-width="2" points="85.52,-621.88 89.61,-612.1 80.31,-617.2 85.52,-621.88"/>
</g>
<!-- 9&#45;&gt;11 -->
<g id="edge18" class="edge">
<title>9&#45;&gt;11</title>
<path fill="none" stroke="grey" stroke-width="2" d="M41.84,-647.85C41.49,-610.83 40.67,-523.18 40.26,-478.39"/>
<polygon fill="grey" stroke="grey" stroke-width="2" points="43.75,-478.2 40.16,-468.23 36.75,-478.26 43.75,-478.2"/>
</g>
<!-- 10&#45;&gt;5 -->
<g id="edge11" class="edge">
<title>10&#45;&gt;5</title>
<path fill="none" stroke="grey" stroke-width="2" d="M105,-575.7C105,-567.98 105,-558.71 105,-550.11"/>
<polygon fill="grey" stroke="grey" stroke-width="2" points="108.5,-550.1 105,-540.1 101.5,-550.1 108.5,-550.1"/>
</g>
<!-- 11&#45;&gt;4 -->
<g id="edge9" class="edge">
<title>11&#45;&gt;4</title>
<path fill="none" stroke="grey" stroke-width="2" d="M56.81,-431.7C65.13,-423.14 75.31,-412.66 84.39,-403.3"/>
<polygon fill="grey" stroke="grey" stroke-width="2" points="86.93,-405.72 91.38,-396.1 81.91,-400.84 86.93,-405.72"/>
</g>
<!-- 12&#45;&gt;0 -->
<g id="edge4" class="edge">
<title>12&#45;&gt;0</title>
<path fill="none" stroke="grey" stroke-width="2" d="M103.01,-71.7C113.72,-62.88 126.89,-52.03 138.5,-42.47"/>
<polygon fill="grey" stroke="grey" stroke-width="2" points="140.74,-45.16 146.23,-36.1 136.29,-39.76 140.74,-45.16"/>
</g>
</g>
</svg>
