<?xml version="1.0" encoding="UTF-8" standalone="no"?>
<!DOCTYPE svg PUBLIC "-//W3C//DTD SVG 1.1//EN"
 "http://www.w3.org/Graphics/SVG/1.1/DTD/svg11.dtd">
<!-- Generated by graphviz version 2.50.0 (20211209.0339)
 -->
<!-- Title: snakemake_dag Pages: 1 -->
<svg width="389pt" height="620pt"
 viewBox="0.00 0.00 389.00 620.00" xmlns="http://www.w3.org/2000/svg" xmlns:xlink="http://www.w3.org/1999/xlink">
<g id="graph0" class="graph" transform="scale(1 1) rotate(0) translate(4 616)">
<title>snakemake_dag</title>
<polygon fill="white" stroke="transparent" points="-4,4 -4,-616 385,-616 385,4 -4,4"/>
<!-- 0 -->
<g id="node1" class="node">
<title>0</title>
<path fill="none" stroke="#56d88a" stroke-width="2" d="M232,-36C232,-36 202,-36 202,-36 196,-36 190,-30 190,-24 190,-24 190,-12 190,-12 190,-6 196,0 202,0 202,0 232,0 232,0 238,0 244,-6 244,-12 244,-12 244,-24 244,-24 244,-30 238,-36 232,-36"/>
<text text-anchor="middle" x="217" y="-15.5" font-family="sans" font-size="10.00">all</text>
</g>
<!-- 1 -->
<g id="node2" class="node">
<title>1</title>
<path fill="none" stroke="#568ad8" stroke-width="2" d="M155,-180C155,-180 117,-180 117,-180 111,-180 105,-174 105,-168 105,-168 105,-156 105,-156 105,-150 111,-144 117,-144 117,-144 155,-144 155,-144 161,-144 167,-150 167,-156 167,-156 167,-168 167,-168 167,-174 161,-180 155,-180"/>
<text text-anchor="middle" x="136" y="-159.5" font-family="sans" font-size="10.00">qc_report</text>
</g>
<!-- 1&#45;&gt;0 -->
<g id="edge3" class="edge">
<title>1&#45;&gt;0</title>
<path fill="none" stroke="grey" stroke-width="2" d="M140.57,-143.76C145.94,-125.2 155.93,-95.19 170,-72 176.05,-62.02 184.08,-52.15 191.79,-43.68"/>
<polygon fill="grey" stroke="grey" stroke-width="2" points="194.4,-46.02 198.71,-36.34 189.3,-41.22 194.4,-46.02"/>
</g>
<!-- 2 -->
<g id="node3" class="node">
<title>2</title>
<path fill="none" stroke="#d6d856" stroke-width="2" d="M135,-396C135,-396 47,-396 47,-396 41,-396 35,-390 35,-384 35,-384 35,-372 35,-372 35,-366 41,-360 47,-360 47,-360 135,-360 135,-360 141,-360 147,-366 147,-372 147,-372 147,-384 147,-384 147,-390 141,-396 135,-396"/>
<text text-anchor="middle" x="91" y="-375.5" font-family="sans" font-size="10.00">umi_tools_whitelist</text>
</g>
<!-- 2&#45;&gt;1 -->
<g id="edge5" class="edge">
<title>2&#45;&gt;1</title>
<path fill="none" stroke="grey" stroke-width="2" d="M102.37,-359.58C108.34,-349.58 115.18,-336.54 119,-324 132.83,-278.59 135.81,-223.01 136.24,-190.46"/>
<polygon fill="grey" stroke="grey" stroke-width="2" points="139.74,-190.36 136.3,-180.34 132.74,-190.32 139.74,-190.36"/>
</g>
<!-- 6 -->
<g id="node7" class="node">
<title>6</title>
<path fill="none" stroke="#d85656" stroke-width="2" d="M98.5,-324C98.5,-324 33.5,-324 33.5,-324 27.5,-324 21.5,-318 21.5,-312 21.5,-312 21.5,-300 21.5,-300 21.5,-294 27.5,-288 33.5,-288 33.5,-288 98.5,-288 98.5,-288 104.5,-288 110.5,-294 110.5,-300 110.5,-300 110.5,-312 110.5,-312 110.5,-318 104.5,-324 98.5,-324"/>
<text text-anchor="middle" x="66" y="-303.5" font-family="sans" font-size="10.00">wash_whitelist</text>
</g>
<!-- 2&#45;&gt;6 -->
<g id="edge12" class="edge">
<title>2&#45;&gt;6</title>
<path fill="none" stroke="grey" stroke-width="2" d="M84.82,-359.7C82,-351.81 78.61,-342.3 75.48,-333.55"/>
<polygon fill="grey" stroke="grey" stroke-width="2" points="78.77,-332.34 72.11,-324.1 72.18,-334.7 78.77,-332.34"/>
</g>
<!-- 3 -->
<g id="node4" class="node">
<title>3</title>
<path fill="none" stroke="#d86e56" stroke-width="2" d="M62,-468C62,-468 12,-468 12,-468 6,-468 0,-462 0,-456 0,-456 0,-444 0,-444 0,-438 6,-432 12,-432 12,-432 62,-432 62,-432 68,-432 74,-438 74,-444 74,-444 74,-456 74,-456 74,-462 68,-468 62,-468"/>
<text text-anchor="middle" x="37" y="-447.5" font-family="sans" font-size="10.00">aggr_r2_fqs</text>
</g>
<!-- 3&#45;&gt;2 -->
<g id="edge7" class="edge">
<title>3&#45;&gt;2</title>
<path fill="none" stroke="grey" stroke-width="2" d="M50.35,-431.7C56.76,-423.39 64.56,-413.28 71.61,-404.14"/>
<polygon fill="grey" stroke="grey" stroke-width="2" points="74.47,-406.16 77.81,-396.1 68.93,-401.88 74.47,-406.16"/>
</g>
<!-- 5 -->
<g id="node6" class="node">
<title>5</title>
<path fill="none" stroke="#56a2d8" stroke-width="2" d="M99,-252C99,-252 19,-252 19,-252 13,-252 7,-246 7,-240 7,-240 7,-228 7,-228 7,-222 13,-216 19,-216 19,-216 99,-216 99,-216 105,-216 111,-222 111,-228 111,-228 111,-240 111,-240 111,-246 105,-252 99,-252"/>
<text text-anchor="middle" x="59" y="-231.5" font-family="sans" font-size="10.00">umi_tools_extract</text>
</g>
<!-- 3&#45;&gt;5 -->
<g id="edge10" class="edge">
<title>3&#45;&gt;5</title>
<path fill="none" stroke="grey" stroke-width="2" d="M28.86,-431.96C15.7,-401.92 -6.97,-337.98 12,-288 15.97,-277.54 23.05,-267.83 30.53,-259.65"/>
<polygon fill="grey" stroke="grey" stroke-width="2" points="33.23,-261.89 37.73,-252.3 28.23,-256.99 33.23,-261.89"/>
</g>
<!-- 4 -->
<g id="node5" class="node">
<title>4</title>
<path fill="none" stroke="#56d8d8" stroke-width="2" d="M158,-468C158,-468 108,-468 108,-468 102,-468 96,-462 96,-456 96,-456 96,-444 96,-444 96,-438 102,-432 108,-432 108,-432 158,-432 158,-432 164,-432 170,-438 170,-444 170,-444 170,-456 170,-456 170,-462 164,-468 158,-468"/>
<text text-anchor="middle" x="133" y="-447.5" font-family="sans" font-size="10.00">aggr_r1_fqs</text>
</g>
<!-- 4&#45;&gt;2 -->
<g id="edge8" class="edge">
<title>4&#45;&gt;2</title>
<path fill="none" stroke="grey" stroke-width="2" d="M122.62,-431.7C117.74,-423.56 111.81,-413.69 106.42,-404.7"/>
<polygon fill="grey" stroke="grey" stroke-width="2" points="109.41,-402.88 101.26,-396.1 103.41,-406.48 109.41,-402.88"/>
</g>
<!-- 4&#45;&gt;5 -->
<g id="edge11" class="edge">
<title>4&#45;&gt;5</title>
<path fill="none" stroke="grey" stroke-width="2" d="M142.54,-431.93C147.64,-421.82 153.39,-408.57 156,-396 159.25,-380.33 159.76,-375.55 156,-360 147.54,-325.03 141.09,-316.4 119,-288 110.72,-277.35 100.09,-267.16 90.09,-258.61"/>
<polygon fill="grey" stroke="grey" stroke-width="2" points="92.19,-255.81 82.26,-252.12 87.73,-261.2 92.19,-255.81"/>
</g>
<!-- 5&#45;&gt;1 -->
<g id="edge4" class="edge">
<title>5&#45;&gt;1</title>
<path fill="none" stroke="grey" stroke-width="2" d="M78.03,-215.7C87.54,-207.05 99.21,-196.45 109.57,-187.03"/>
<polygon fill="grey" stroke="grey" stroke-width="2" points="112.14,-189.42 117.19,-180.1 107.43,-184.24 112.14,-189.42"/>
</g>
<!-- 6&#45;&gt;5 -->
<g id="edge9" class="edge">
<title>6&#45;&gt;5</title>
<path fill="none" stroke="grey" stroke-width="2" d="M64.27,-287.7C63.5,-279.98 62.57,-270.71 61.71,-262.11"/>
<polygon fill="grey" stroke="grey" stroke-width="2" points="65.19,-261.71 60.71,-252.1 58.22,-262.4 65.19,-261.71"/>
</g>
<!-- 7 -->
<g id="node8" class="node">
<title>7</title>
<path fill="none" stroke="#d8a456" stroke-width="2" d="M256.5,-252C256.5,-252 183.5,-252 183.5,-252 177.5,-252 171.5,-246 171.5,-240 171.5,-240 171.5,-228 171.5,-228 171.5,-222 177.5,-216 183.5,-216 183.5,-216 256.5,-216 256.5,-216 262.5,-216 268.5,-222 268.5,-228 268.5,-228 268.5,-240 268.5,-240 268.5,-246 262.5,-252 256.5,-252"/>
<text text-anchor="middle" x="220" y="-231.5" font-family="sans" font-size="10.00">umi_tools_count</text>
</g>
<!-- 7&#45;&gt;1 -->
<g id="edge6" class="edge">
<title>7&#45;&gt;1</title>
<path fill="none" stroke="grey" stroke-width="2" d="M199.24,-215.7C188.76,-206.97 175.89,-196.24 164.5,-186.75"/>
<polygon fill="grey" stroke="grey" stroke-width="2" points="166.45,-183.82 156.53,-180.1 161.97,-189.19 166.45,-183.82"/>
</g>
<!-- 13 -->
<g id="node14" class="node">
<title>13</title>
<path fill="none" stroke="#a7d856" stroke-width="2" d="M246.5,-180C246.5,-180 197.5,-180 197.5,-180 191.5,-180 185.5,-174 185.5,-168 185.5,-168 185.5,-156 185.5,-156 185.5,-150 191.5,-144 197.5,-144 197.5,-144 246.5,-144 246.5,-144 252.5,-144 258.5,-150 258.5,-156 258.5,-156 258.5,-168 258.5,-168 258.5,-174 252.5,-180 246.5,-180"/>
<text text-anchor="middle" x="222" y="-159.5" font-family="sans" font-size="10.00">append_sfx</text>
</g>
<!-- 7&#45;&gt;13 -->
<g id="edge18" class="edge">
<title>7&#45;&gt;13</title>
<path fill="none" stroke="grey" stroke-width="2" d="M220.49,-215.7C220.71,-207.98 220.98,-198.71 221.23,-190.11"/>
<polygon fill="grey" stroke="grey" stroke-width="2" points="224.72,-190.2 221.51,-180.1 217.73,-190 224.72,-190.2"/>
</g>
<!-- 8 -->
<g id="node9" class="node">
<title>8</title>
<path fill="none" stroke="#5673d8" stroke-width="2" d="M308.5,-396C308.5,-396 237.5,-396 237.5,-396 231.5,-396 225.5,-390 225.5,-384 225.5,-384 225.5,-372 225.5,-372 225.5,-366 231.5,-360 237.5,-360 237.5,-360 308.5,-360 308.5,-360 314.5,-360 320.5,-366 320.5,-372 320.5,-372 320.5,-384 320.5,-384 320.5,-390 314.5,-396 308.5,-396"/>
<text text-anchor="middle" x="273" y="-375.5" font-family="sans" font-size="10.00">sambamba_sort</text>
</g>
<!-- 8&#45;&gt;7 -->
<g id="edge13" class="edge">
<title>8&#45;&gt;7</title>
<path fill="none" stroke="grey" stroke-width="2" d="M266.61,-359.87C257.49,-335.46 240.69,-290.43 229.94,-261.64"/>
<polygon fill="grey" stroke="grey" stroke-width="2" points="233.19,-260.33 226.42,-252.19 226.63,-262.78 233.19,-260.33"/>
</g>
<!-- 16 -->
<g id="node17" class="node">
<title>16</title>
<path fill="none" stroke="#88d856" stroke-width="2" d="M312,-324C312,-324 282,-324 282,-324 276,-324 270,-318 270,-312 270,-312 270,-300 270,-300 270,-294 276,-288 282,-288 282,-288 312,-288 312,-288 318,-288 324,-294 324,-300 324,-300 324,-312 324,-312 324,-318 318,-324 312,-324"/>
<text text-anchor="middle" x="297" y="-303.5" font-family="sans" font-size="10.00">pysam</text>
</g>
<!-- 8&#45;&gt;16 -->
<g id="edge22" class="edge">
<title>8&#45;&gt;16</title>
<path fill="none" stroke="grey" stroke-width="2" d="M278.93,-359.7C281.61,-351.9 284.83,-342.51 287.8,-333.83"/>
<polygon fill="grey" stroke="grey" stroke-width="2" points="291.2,-334.7 291.14,-324.1 284.58,-332.43 291.2,-334.7"/>
</g>
<!-- 9 -->
<g id="node10" class="node">
<title>9</title>
<path fill="none" stroke="#56d873" stroke-width="2" d="M304,-468C304,-468 242,-468 242,-468 236,-468 230,-462 230,-456 230,-456 230,-444 230,-444 230,-438 236,-432 242,-432 242,-432 304,-432 304,-432 310,-432 316,-438 316,-444 316,-444 316,-456 316,-456 316,-462 310,-468 304,-468"/>
<text text-anchor="middle" x="273" y="-447.5" font-family="sans" font-size="10.00">featureCounts</text>
</g>
<!-- 9&#45;&gt;8 -->
<g id="edge14" class="edge">
<title>9&#45;&gt;8</title>
<path fill="none" stroke="grey" stroke-width="2" d="M273,-431.7C273,-423.98 273,-414.71 273,-406.11"/>
<polygon fill="grey" stroke="grey" stroke-width="2" points="276.5,-406.1 273,-396.1 269.5,-406.1 276.5,-406.1"/>
</g>
<!-- 10 -->
<g id="node11" class="node">
<title>10</title>
<path fill="none" stroke="#56c1d8" stroke-width="2" d="M293.5,-612C293.5,-612 252.5,-612 252.5,-612 246.5,-612 240.5,-606 240.5,-600 240.5,-600 240.5,-588 240.5,-588 240.5,-582 246.5,-576 252.5,-576 252.5,-576 293.5,-576 293.5,-576 299.5,-576 305.5,-582 305.5,-588 305.5,-588 305.5,-600 305.5,-600 305.5,-606 299.5,-612 293.5,-612"/>
<text text-anchor="middle" x="273" y="-591.5" font-family="sans" font-size="10.00">STAR_gen</text>
</g>
<!-- 11 -->
<g id="node12" class="node">
<title>11</title>
<path fill="none" stroke="#56d8a2" stroke-width="2" d="M301,-540C301,-540 245,-540 245,-540 239,-540 233,-534 233,-528 233,-528 233,-516 233,-516 233,-510 239,-504 245,-504 245,-504 301,-504 301,-504 307,-504 313,-510 313,-516 313,-516 313,-528 313,-528 313,-534 307,-540 301,-540"/>
<text text-anchor="middle" x="273" y="-519.5" font-family="sans" font-size="10.00">STAR_unload</text>
</g>
<!-- 10&#45;&gt;11 -->
<g id="edge16" class="edge">
<title>10&#45;&gt;11</title>
<path fill="none" stroke="grey" stroke-width="2" d="M273,-575.7C273,-567.98 273,-558.71 273,-550.11"/>
<polygon fill="grey" stroke="grey" stroke-width="2" points="276.5,-550.1 273,-540.1 269.5,-550.1 276.5,-550.1"/>
</g>
<!-- 11&#45;&gt;9 -->
<g id="edge15" class="edge">
<title>11&#45;&gt;9</title>
<path fill="none" stroke="grey" stroke-width="2" d="M273,-503.7C273,-495.98 273,-486.71 273,-478.11"/>
<polygon fill="grey" stroke="grey" stroke-width="2" points="276.5,-478.1 273,-468.1 269.5,-478.1 276.5,-478.1"/>
</g>
<!-- 12 -->
<g id="node13" class="node">
<title>12</title>
<path fill="none" stroke="#d8bc56" stroke-width="2" d="M243,-108C243,-108 191,-108 191,-108 185,-108 179,-102 179,-96 179,-96 179,-84 179,-84 179,-78 185,-72 191,-72 191,-72 243,-72 243,-72 249,-72 255,-78 255,-84 255,-84 255,-96 255,-96 255,-102 249,-108 243,-108"/>
<text text-anchor="middle" x="217" y="-87.5" font-family="sans" font-size="10.00">aggr_counts</text>
</g>
<!-- 12&#45;&gt;0 -->
<g id="edge1" class="edge">
<title>12&#45;&gt;0</title>
<path fill="none" stroke="grey" stroke-width="2" d="M217,-71.7C217,-63.98 217,-54.71 217,-46.11"/>
<polygon fill="grey" stroke="grey" stroke-width="2" points="220.5,-46.1 217,-36.1 213.5,-46.1 220.5,-46.1"/>
</g>
<!-- 13&#45;&gt;12 -->
<g id="edge17" class="edge">
<title>13&#45;&gt;12</title>
<path fill="none" stroke="grey" stroke-width="2" d="M220.76,-143.7C220.21,-135.98 219.55,-126.71 218.94,-118.11"/>
<polygon fill="grey" stroke="grey" stroke-width="2" points="222.43,-117.83 218.22,-108.1 215.44,-118.33 222.43,-117.83"/>
</g>
<!-- 14 -->
<g id="node15" class="node">
<title>14</title>
<path fill="none" stroke="#59d856" stroke-width="2" d="M356.5,-108C356.5,-108 285.5,-108 285.5,-108 279.5,-108 273.5,-102 273.5,-96 273.5,-96 273.5,-84 273.5,-84 273.5,-78 279.5,-72 285.5,-72 285.5,-72 356.5,-72 356.5,-72 362.5,-72 368.5,-78 368.5,-84 368.5,-84 368.5,-96 368.5,-96 368.5,-102 362.5,-108 356.5,-108"/>
<text text-anchor="middle" x="321" y="-87.5" font-family="sans" font-size="10.00">aggr_velo_loom</text>
</g>
<!-- 14&#45;&gt;0 -->
<g id="edge2" class="edge">
<title>14&#45;&gt;0</title>
<path fill="none" stroke="grey" stroke-width="2" d="M295.56,-71.88C282.21,-62.89 265.68,-51.76 251.22,-42.03"/>
<polygon fill="grey" stroke="grey" stroke-width="2" points="252.79,-38.87 242.54,-36.19 248.88,-44.68 252.79,-38.87"/>
</g>
<!-- 15 -->
<g id="node16" class="node">
<title>15</title>
<path fill="none" stroke="#70d856" stroke-width="2" d="M338.5,-180C338.5,-180 303.5,-180 303.5,-180 297.5,-180 291.5,-174 291.5,-168 291.5,-168 291.5,-156 291.5,-156 291.5,-150 297.5,-144 303.5,-144 303.5,-144 338.5,-144 338.5,-144 344.5,-144 350.5,-150 350.5,-156 350.5,-156 350.5,-168 350.5,-168 350.5,-174 344.5,-180 338.5,-180"/>
<text text-anchor="middle" x="321" y="-159.5" font-family="sans" font-size="10.00">velocyto</text>
</g>
<!-- 15&#45;&gt;14 -->
<g id="edge19" class="edge">
<title>15&#45;&gt;14</title>
<path fill="none" stroke="grey" stroke-width="2" d="M321,-143.7C321,-135.98 321,-126.71 321,-118.11"/>
<polygon fill="grey" stroke="grey" stroke-width="2" points="324.5,-118.1 321,-108.1 317.5,-118.1 324.5,-118.1"/>
</g>
<!-- 16&#45;&gt;15 -->
<g id="edge20" class="edge">
<title>16&#45;&gt;15</title>
<path fill="none" stroke="grey" stroke-width="2" d="M299.89,-287.87C303.99,-263.67 311.5,-219.21 316.37,-190.39"/>
<polygon fill="grey" stroke="grey" stroke-width="2" points="319.88,-190.63 318.09,-180.19 312.98,-189.47 319.88,-190.63"/>
</g>
<!-- 17 -->
<g id="node18" class="node">
<title>17</title>
<path fill="none" stroke="#d88d56" stroke-width="2" d="M369,-252C369,-252 337,-252 337,-252 331,-252 325,-246 325,-240 325,-240 325,-228 325,-228 325,-222 331,-216 337,-216 337,-216 369,-216 369,-216 375,-216 381,-222 381,-228 381,-228 381,-240 381,-240 381,-246 375,-252 369,-252"/>
<text text-anchor="middle" x="353" y="-231.5" font-family="sans" font-size="10.00">pre_sort</text>
</g>
<!-- 16&#45;&gt;17 -->
<g id="edge23" class="edge">
<title>16&#45;&gt;17</title>
<path fill="none" stroke="grey" stroke-width="2" d="M310.84,-287.7C317.49,-279.39 325.58,-269.28 332.89,-260.14"/>
<polygon fill="grey" stroke="grey" stroke-width="2" points="335.8,-262.1 339.32,-252.1 330.34,-257.73 335.8,-262.1"/>
</g>
<!-- 17&#45;&gt;15 -->
<g id="edge21" class="edge">
<title>17&#45;&gt;15</title>
<path fill="none" stroke="grey" stroke-width="2" d="M345.09,-215.7C341.45,-207.73 337.05,-198.1 333.01,-189.26"/>
<polygon fill="grey" stroke="grey" stroke-width="2" points="336.16,-187.74 328.82,-180.1 329.79,-190.65 336.16,-187.74"/>
</g>
</g>
</svg>
