<?xml version="1.0" encoding="UTF-8" standalone="no"?>
<!DOCTYPE svg PUBLIC "-//W3C//DTD SVG 1.1//EN"
 "http://www.w3.org/Graphics/SVG/1.1/DTD/svg11.dtd">
<!-- Generated by graphviz version 2.49.0 (20210829.0051)
 -->
<!-- Title: snakemake_dag Pages: 1 -->
<svg width="300pt" height="764pt"
 viewBox="0.00 0.00 300.00 764.00" xmlns="http://www.w3.org/2000/svg" xmlns:xlink="http://www.w3.org/1999/xlink">
<g id="graph0" class="graph" transform="scale(1 1) rotate(0) translate(4 760)">
<title>snakemake_dag</title>
<polygon fill="white" stroke="transparent" points="-4,4 -4,-760 296,-760 296,4 -4,4"/>
<!-- 0 -->
<g id="node1" class="node">
<title>0</title>
<path fill="none" stroke="#567bd8" stroke-width="2" d="M118,-36C118,-36 88,-36 88,-36 82,-36 76,-30 76,-24 76,-24 76,-12 76,-12 76,-6 82,0 88,0 88,0 118,0 118,0 124,0 130,-6 130,-12 130,-12 130,-24 130,-24 130,-30 124,-36 118,-36"/>
<text text-anchor="middle" x="103" y="-15.5" font-family="sans" font-size="10.00">all</text>
</g>
<!-- 1 -->
<g id="node2" class="node">
<title>1</title>
<path fill="none" stroke="#9fd856" stroke-width="2" d="M79,-180C79,-180 41,-180 41,-180 35,-180 29,-174 29,-168 29,-168 29,-156 29,-156 29,-150 35,-144 41,-144 41,-144 79,-144 79,-144 85,-144 91,-150 91,-156 91,-156 91,-168 91,-168 91,-174 85,-180 79,-180"/>
<text text-anchor="middle" x="60" y="-159.5" font-family="sans" font-size="10.00">qc_report</text>
</g>
<!-- 1&#45;&gt;0 -->
<g id="edge1" class="edge">
<title>1&#45;&gt;0</title>
<path fill="none" stroke="grey" stroke-width="2" d="M65.19,-143.87C72.55,-119.56 86.1,-74.82 94.82,-46.01"/>
<polygon fill="grey" stroke="grey" stroke-width="2" points="98.25,-46.77 97.79,-36.19 91.55,-44.75 98.25,-46.77"/>
</g>
<!-- 2 -->
<g id="node3" class="node">
<title>2</title>
<path fill="none" stroke="#d87d56" stroke-width="2" d="M100,-756C100,-756 12,-756 12,-756 6,-756 0,-750 0,-744 0,-744 0,-732 0,-732 0,-726 6,-720 12,-720 12,-720 100,-720 100,-720 106,-720 112,-726 112,-732 112,-732 112,-744 112,-744 112,-750 106,-756 100,-756"/>
<text text-anchor="middle" x="56" y="-735.5" font-family="sans" font-size="10.00">umi_tools_whitelist</text>
</g>
<!-- 2&#45;&gt;1 -->
<g id="edge5" class="edge">
<title>2&#45;&gt;1</title>
<path fill="none" stroke="grey" stroke-width="2" d="M48.71,-719.87C38.2,-693.53 20,-641.29 20,-595 20,-595 20,-595 20,-305 20,-263.48 36.04,-217.61 47.8,-189.54"/>
<polygon fill="grey" stroke="grey" stroke-width="2" points="51.15,-190.62 51.91,-180.05 44.73,-187.84 51.15,-190.62"/>
</g>
<!-- 4 -->
<g id="node5" class="node">
<title>4</title>
<path fill="none" stroke="#59d856" stroke-width="2" d="M128.5,-684C128.5,-684 63.5,-684 63.5,-684 57.5,-684 51.5,-678 51.5,-672 51.5,-672 51.5,-660 51.5,-660 51.5,-654 57.5,-648 63.5,-648 63.5,-648 128.5,-648 128.5,-648 134.5,-648 140.5,-654 140.5,-660 140.5,-660 140.5,-672 140.5,-672 140.5,-678 134.5,-684 128.5,-684"/>
<text text-anchor="middle" x="96" y="-663.5" font-family="sans" font-size="10.00">wash_whitelist</text>
</g>
<!-- 2&#45;&gt;4 -->
<g id="edge7" class="edge">
<title>2&#45;&gt;4</title>
<path fill="none" stroke="grey" stroke-width="2" d="M65.89,-719.7C70.49,-711.64 76.06,-701.89 81.15,-692.98"/>
<polygon fill="grey" stroke="grey" stroke-width="2" points="84.3,-694.52 86.23,-684.1 78.23,-691.05 84.3,-694.52"/>
</g>
<!-- 3 -->
<g id="node4" class="node">
<title>3</title>
<path fill="none" stroke="#56c9d8" stroke-width="2" d="M140,-612C140,-612 60,-612 60,-612 54,-612 48,-606 48,-600 48,-600 48,-588 48,-588 48,-582 54,-576 60,-576 60,-576 140,-576 140,-576 146,-576 152,-582 152,-588 152,-588 152,-600 152,-600 152,-606 146,-612 140,-612"/>
<text text-anchor="middle" x="100" y="-591.5" font-family="sans" font-size="10.00">umi_tools_extract</text>
</g>
<!-- 3&#45;&gt;1 -->
<g id="edge4" class="edge">
<title>3&#45;&gt;1</title>
<path fill="none" stroke="grey" stroke-width="2" d="M91.91,-575.95C80.22,-549.72 60,-497.61 60,-451 60,-451 60,-451 60,-305 60,-265 60,-218.65 60,-190.08"/>
<polygon fill="grey" stroke="grey" stroke-width="2" points="63.5,-190.05 60,-180.05 56.5,-190.05 63.5,-190.05"/>
</g>
<!-- 8 -->
<g id="node9" class="node">
<title>8</title>
<path fill="none" stroke="#d85656" stroke-width="2" d="M175,-468C175,-468 145,-468 145,-468 139,-468 133,-462 133,-456 133,-456 133,-444 133,-444 133,-438 139,-432 145,-432 145,-432 175,-432 175,-432 181,-432 187,-438 187,-444 187,-444 187,-456 187,-456 187,-462 181,-468 175,-468"/>
<text text-anchor="middle" x="160" y="-447.5" font-family="sans" font-size="10.00">STAR</text>
</g>
<!-- 3&#45;&gt;8 -->
<g id="edge13" class="edge">
<title>3&#45;&gt;8</title>
<path fill="none" stroke="grey" stroke-width="2" d="M100.79,-575.84C102.21,-557.34 106.12,-527.39 117,-504 121.69,-493.9 128.74,-484.08 135.77,-475.69"/>
<polygon fill="grey" stroke="grey" stroke-width="2" points="138.45,-477.93 142.43,-468.12 133.2,-473.31 138.45,-477.93"/>
</g>
<!-- 10 -->
<g id="node11" class="node">
<title>10</title>
<path fill="none" stroke="#d8a456" stroke-width="2" d="M182,-540C182,-540 138,-540 138,-540 132,-540 126,-534 126,-528 126,-528 126,-516 126,-516 126,-510 132,-504 138,-504 138,-504 182,-504 182,-504 188,-504 194,-510 194,-516 194,-516 194,-528 194,-528 194,-534 188,-540 182,-540"/>
<text text-anchor="middle" x="160" y="-519.5" font-family="sans" font-size="10.00">STAR_load</text>
</g>
<!-- 3&#45;&gt;10 -->
<g id="edge15" class="edge">
<title>3&#45;&gt;10</title>
<path fill="none" stroke="grey" stroke-width="2" d="M114.83,-575.7C122.02,-567.3 130.8,-557.07 138.69,-547.86"/>
<polygon fill="grey" stroke="grey" stroke-width="2" points="141.49,-549.97 145.34,-540.1 136.17,-545.42 141.49,-549.97"/>
</g>
<!-- 4&#45;&gt;3 -->
<g id="edge6" class="edge">
<title>4&#45;&gt;3</title>
<path fill="none" stroke="grey" stroke-width="2" d="M96.99,-647.7C97.43,-639.98 97.96,-630.71 98.45,-622.11"/>
<polygon fill="grey" stroke="grey" stroke-width="2" points="101.95,-622.29 99.02,-612.1 94.96,-621.89 101.95,-622.29"/>
</g>
<!-- 5 -->
<g id="node6" class="node">
<title>5</title>
<path fill="none" stroke="#56d8a2" stroke-width="2" d="M182.5,-252C182.5,-252 109.5,-252 109.5,-252 103.5,-252 97.5,-246 97.5,-240 97.5,-240 97.5,-228 97.5,-228 97.5,-222 103.5,-216 109.5,-216 109.5,-216 182.5,-216 182.5,-216 188.5,-216 194.5,-222 194.5,-228 194.5,-228 194.5,-240 194.5,-240 194.5,-246 188.5,-252 182.5,-252"/>
<text text-anchor="middle" x="146" y="-231.5" font-family="sans" font-size="10.00">umi_tools_count</text>
</g>
<!-- 5&#45;&gt;1 -->
<g id="edge3" class="edge">
<title>5&#45;&gt;1</title>
<path fill="none" stroke="grey" stroke-width="2" d="M124.74,-215.7C113.91,-206.88 100.58,-196.03 88.84,-186.47"/>
<polygon fill="grey" stroke="grey" stroke-width="2" points="90.98,-183.7 81.01,-180.1 86.56,-189.13 90.98,-183.7"/>
</g>
<!-- 13 -->
<g id="node14" class="node">
<title>13</title>
<path fill="none" stroke="#56d87b" stroke-width="2" d="M170.5,-180C170.5,-180 121.5,-180 121.5,-180 115.5,-180 109.5,-174 109.5,-168 109.5,-168 109.5,-156 109.5,-156 109.5,-150 115.5,-144 121.5,-144 121.5,-144 170.5,-144 170.5,-144 176.5,-144 182.5,-150 182.5,-156 182.5,-156 182.5,-168 182.5,-168 182.5,-174 176.5,-180 170.5,-180"/>
<text text-anchor="middle" x="146" y="-159.5" font-family="sans" font-size="10.00">append_sfx</text>
</g>
<!-- 5&#45;&gt;13 -->
<g id="edge19" class="edge">
<title>5&#45;&gt;13</title>
<path fill="none" stroke="grey" stroke-width="2" d="M146,-215.7C146,-207.98 146,-198.71 146,-190.11"/>
<polygon fill="grey" stroke="grey" stroke-width="2" points="149.5,-190.1 146,-180.1 142.5,-190.1 149.5,-190.1"/>
</g>
<!-- 6 -->
<g id="node7" class="node">
<title>6</title>
<path fill="none" stroke="#78d856" stroke-width="2" d="M188.5,-324C188.5,-324 117.5,-324 117.5,-324 111.5,-324 105.5,-318 105.5,-312 105.5,-312 105.5,-300 105.5,-300 105.5,-294 111.5,-288 117.5,-288 117.5,-288 188.5,-288 188.5,-288 194.5,-288 200.5,-294 200.5,-300 200.5,-300 200.5,-312 200.5,-312 200.5,-318 194.5,-324 188.5,-324"/>
<text text-anchor="middle" x="153" y="-303.5" font-family="sans" font-size="10.00">sambamba_sort</text>
</g>
<!-- 6&#45;&gt;5 -->
<g id="edge8" class="edge">
<title>6&#45;&gt;5</title>
<path fill="none" stroke="grey" stroke-width="2" d="M151.27,-287.7C150.5,-279.98 149.57,-270.71 148.71,-262.11"/>
<polygon fill="grey" stroke="grey" stroke-width="2" points="152.19,-261.71 147.71,-252.1 145.22,-262.4 152.19,-261.71"/>
</g>
<!-- 7 -->
<g id="node8" class="node">
<title>7</title>
<path fill="none" stroke="#d8c356" stroke-width="2" d="M191,-396C191,-396 129,-396 129,-396 123,-396 117,-390 117,-384 117,-384 117,-372 117,-372 117,-366 123,-360 129,-360 129,-360 191,-360 191,-360 197,-360 203,-366 203,-372 203,-372 203,-384 203,-384 203,-390 197,-396 191,-396"/>
<text text-anchor="middle" x="160" y="-375.5" font-family="sans" font-size="10.00">featureCounts</text>
</g>
<!-- 7&#45;&gt;6 -->
<g id="edge9" class="edge">
<title>7&#45;&gt;6</title>
<path fill="none" stroke="grey" stroke-width="2" d="M158.27,-359.7C157.5,-351.98 156.57,-342.71 155.71,-334.11"/>
<polygon fill="grey" stroke="grey" stroke-width="2" points="159.19,-333.71 154.71,-324.1 152.22,-334.4 159.19,-333.71"/>
</g>
<!-- 8&#45;&gt;7 -->
<g id="edge11" class="edge">
<title>8&#45;&gt;7</title>
<path fill="none" stroke="grey" stroke-width="2" d="M160,-431.7C160,-423.98 160,-414.71 160,-406.11"/>
<polygon fill="grey" stroke="grey" stroke-width="2" points="163.5,-406.1 160,-396.1 156.5,-406.1 163.5,-406.1"/>
</g>
<!-- 9 -->
<g id="node10" class="node">
<title>9</title>
<path fill="none" stroke="#56a2d8" stroke-width="2" d="M242.5,-612C242.5,-612 201.5,-612 201.5,-612 195.5,-612 189.5,-606 189.5,-600 189.5,-600 189.5,-588 189.5,-588 189.5,-582 195.5,-576 201.5,-576 201.5,-576 242.5,-576 242.5,-576 248.5,-576 254.5,-582 254.5,-588 254.5,-588 254.5,-600 254.5,-600 254.5,-606 248.5,-612 242.5,-612"/>
<text text-anchor="middle" x="222" y="-591.5" font-family="sans" font-size="10.00">STAR_gen</text>
</g>
<!-- 9&#45;&gt;8 -->
<g id="edge14" class="edge">
<title>9&#45;&gt;8</title>
<path fill="none" stroke="grey" stroke-width="2" d="M220.73,-575.84C218.83,-557.33 214.18,-527.38 203,-504 198.2,-493.95 191.13,-484.14 184.1,-475.75"/>
<polygon fill="grey" stroke="grey" stroke-width="2" points="186.68,-473.38 177.45,-468.17 181.42,-477.99 186.68,-473.38"/>
</g>
<!-- 9&#45;&gt;10 -->
<g id="edge16" class="edge">
<title>9&#45;&gt;10</title>
<path fill="none" stroke="grey" stroke-width="2" d="M206.67,-575.7C199.24,-567.3 190.18,-557.07 182.02,-547.86"/>
<polygon fill="grey" stroke="grey" stroke-width="2" points="184.4,-545.27 175.15,-540.1 179.16,-549.91 184.4,-545.27"/>
</g>
<!-- 11 -->
<g id="node12" class="node">
<title>11</title>
<path fill="none" stroke="#56d8c9" stroke-width="2" d="M280,-468C280,-468 224,-468 224,-468 218,-468 212,-462 212,-456 212,-456 212,-444 212,-444 212,-438 218,-432 224,-432 224,-432 280,-432 280,-432 286,-432 292,-438 292,-444 292,-444 292,-456 292,-456 292,-462 286,-468 280,-468"/>
<text text-anchor="middle" x="252" y="-447.5" font-family="sans" font-size="10.00">STAR_unload</text>
</g>
<!-- 9&#45;&gt;11 -->
<g id="edge17" class="edge">
<title>9&#45;&gt;11</title>
<path fill="none" stroke="grey" stroke-width="2" d="M226.89,-575.9C229.76,-565.56 233.32,-552.08 236,-540 240.56,-519.44 244.73,-495.98 247.67,-478.32"/>
<polygon fill="grey" stroke="grey" stroke-width="2" points="251.18,-478.58 249.34,-468.14 244.27,-477.45 251.18,-478.58"/>
</g>
<!-- 10&#45;&gt;8 -->
<g id="edge12" class="edge">
<title>10&#45;&gt;8</title>
<path fill="none" stroke="grey" stroke-width="2" d="M160,-503.7C160,-495.98 160,-486.71 160,-478.11"/>
<polygon fill="grey" stroke="grey" stroke-width="2" points="163.5,-478.1 160,-468.1 156.5,-478.1 163.5,-478.1"/>
</g>
<!-- 11&#45;&gt;7 -->
<g id="edge10" class="edge">
<title>11&#45;&gt;7</title>
<path fill="none" stroke="grey" stroke-width="2" d="M229.26,-431.7C217.56,-422.8 203.14,-411.82 190.49,-402.2"/>
<polygon fill="grey" stroke="grey" stroke-width="2" points="192.56,-399.37 182.48,-396.1 188.32,-404.94 192.56,-399.37"/>
</g>
<!-- 12 -->
<g id="node13" class="node">
<title>12</title>
<path fill="none" stroke="#c6d856" stroke-width="2" d="M167,-108C167,-108 115,-108 115,-108 109,-108 103,-102 103,-96 103,-96 103,-84 103,-84 103,-78 109,-72 115,-72 115,-72 167,-72 167,-72 173,-72 179,-78 179,-84 179,-84 179,-96 179,-96 179,-102 173,-108 167,-108"/>
<text text-anchor="middle" x="141" y="-87.5" font-family="sans" font-size="10.00">aggr_counts</text>
</g>
<!-- 12&#45;&gt;0 -->
<g id="edge2" class="edge">
<title>12&#45;&gt;0</title>
<path fill="none" stroke="grey" stroke-width="2" d="M131.61,-71.7C127.24,-63.64 121.94,-53.89 117.1,-44.98"/>
<polygon fill="grey" stroke="grey" stroke-width="2" points="120.13,-43.22 112.29,-36.1 113.98,-46.56 120.13,-43.22"/>
</g>
<!-- 13&#45;&gt;12 -->
<g id="edge18" class="edge">
<title>13&#45;&gt;12</title>
<path fill="none" stroke="grey" stroke-width="2" d="M144.76,-143.7C144.21,-135.98 143.55,-126.71 142.94,-118.11"/>
<polygon fill="grey" stroke="grey" stroke-width="2" points="146.43,-117.83 142.22,-108.1 139.44,-118.33 146.43,-117.83"/>
</g>
</g>
</svg>
